<?xml version="1.0" standalone="no"?>
<!-- Generator: Adobe Fireworks 10, Export SVG Extension by Aaron Beall (http://fireworks.abeall.com) . Version: 0.6.1  -->
<!DOCTYPE svg PUBLIC "-//W3C//DTD SVG 1.1//EN" "http://www.w3.org/Graphics/SVG/1.1/DTD/svg11.dtd">
<svg id="avatar.fw-avatar" viewBox="0 0 250 250" style="background-color:#ffffff00" version="1.1"
	xmlns="http://www.w3.org/2000/svg" xmlns:xlink="http://www.w3.org/1999/xlink" xml:space="preserve"
	x="0px" y="0px" width="250px" height="250px"
>
	<defs>
		<filter id="filter1" x="-100%" y="-100%" width="300%" height="300%">
			<!-- Drop Shadow -->
			<feOffset result="out" in="SourceGraphic" dx="0" dy="3"/>
			<feColorMatrix result="out" in="out" type="matrix" values="0 0 0 0 0  0 0 0 0 0  0 0 0 0 0  0 0 0 0.102 0"/>
			<feGaussianBlur result="out" in="out" stdDeviation="1"/>
			<feBlend in="SourceGraphic" in2="out" mode="normal" result="Drop_Shadow1"/>
		</filter>
	</defs>
	<g id="base">
		<path id="body" d="M 125 164 L 111 164 L 100.03 164 L 100.03 176.575 C 27 203.5 33.1441 197.3552 27.5 217.5 L 23.18 250.5 L 111 250.5 L 111 251 L 140 251 L 140 250.5 L 227 250.5 L 222.68 217.5 C 217.0359 197.3552 223.18 203.5 150.15 176.575 L 150.15 164 L 140 164 L 125.18 164 L 125 164 Z" fill="#ffcc99"/>
		<path id="body_shadow" opacity="0.0392" d="M 188 250.5 L 117.5 172.5 L 150.15 164 L 150.15 176.575 C 223.18 203.5 217.0359 197.3552 222.68 217.5 L 227 250.5 L 188 250.5 Z" fill="#000000"/>
		<path id="head" filter="url(#filter1)" d="M 167 100.0968 C 167 76.8471 148.1963 58 125 58 C 101.8038 58 83 76.8471 83 100.0968 L 83 128.1613 L 83.1633 128.1613 C 83.055 129.3941 83 130.6422 83 131.9032 C 83 155.1529 101.8038 174 125 174 C 148.1963 174 167 155.1529 167 131.9032 C 167 130.6422 166.945 129.3941 166.8367 128.1613 L 167 128.1613 L 167 100.0968 Z" fill="#ffcc99"/>
		<path id="head_shadow" opacity="0.0392" d="M 167 100.0968 C 167 76.8471 148.1963 58 125 58 L 125 174 C 148.1963 174 167 155.1529 167 131.9032 C 167 130.6422 166.945 129.3941 166.8367 128.1613 L 167 128.1613 L 167 100.0968 Z" fill="#000000"/>
	</g>
	<g id="eyes">
		<path id="right" d="M 102 116.5 C 102 112.3578 104.2385 109 107 109 C 109.7615 109 112 112.3578 112 116.5 C 112 120.6422 109.7615 124 107 124 C 104.2385 124 102 120.6422 102 116.5 Z" fill="#222222"/>
		<path id="left" d="M 139 116.5 C 139 112.3578 141.2385 109 144 109 C 146.7615 109 149 112.3578 149 116.5 C 149 120.6422 146.7615 124 144 124 C 141.2385 124 139 120.6422 139 116.5 Z" fill="#222222"/>
	</g>
	<g id="mouth_3">
		<path id="Ellipse" d="M 113 153 C 113 151.3431 118.5964 150 125.5 150 C 132.4037 150 138 151.3431 138 153 C 138 154.6569 132.4037 156 125.5 156 C 118.5964 156 113 154.6569 113 153 Z" fill="#ffffff"/>
	</g>
	<g id="mouth_2">
		<path id="Ellipse2" opacity="0.302" d="M 110 152 C 110 150.8954 116.7156 150 125 150 C 133.2844 150 140 150.8954 140 152 C 140 153.1046 133.2844 154 125 154 C 116.7156 154 110 153.1046 110 152 Z" fill="#d90000"/>
	</g>
	<g id="mouth_1">
		<path id="path" d="M 107.03 148 C 107.5933 152.4617 115.6479 159 125.5 159 C 135.3521 159 143.4067 152.4617 143.97 148 L 107.03 148 Z" fill="#ffffff"/>
	</g>
	<g id="F_cloth_1">
		<path id="F_cloth_base" d="M 122 250.5 L 230 250.5 L 224 217.5 C 218.5107 197.9076 221.1937 201.6929 150.645 176.685 C 150.8794 178.0884 151 179.53 151 181 C 151 191.4143 144.8773 200.3995 136.035 204.55 L 125.5 216 L 114.885 204.96 C 108.3484 202.1964 103.1778 196.8349 100.665 190.17 L 100.5 190 L 100.555 189.875 C 99.5489 187.1053 99 184.117 99 181 C 99 179.3979 99.1426 177.832 99.42 176.31 C 27.6971 201.7786 32.4867 197.1667 25.3333 217.6667 L 20.3333 251.5 L 122 251.5 L 122 250.5 Z" fill="#222222"/>
		<path opacity="0.0392" d="M 188 250.5 L 142 201 L 152.5 187.5 L 150.15 176.575 C 223.18 203.5 217.0359 197.3552 222.68 217.5 L 229.5 250.5 L 188 250.5 Z" fill="#000000"/>
	</g>
	<g id="M_cloth_1">
		<path id="M_cloth_base" d="M 122 250.5 L 230 250.5 L 224 217.5 C 218.5107 197.9076 221.1937 201.6929 150.645 176.685 C 150.8794 178.0884 151 179.53 151 181 C 151 195.3596 139.3596 207 125 207 C 110.6404 207 99 195.3596 99 181 C 99 179.3979 99.1426 177.832 99.42 176.31 C 27.6971 201.7786 32.4867 197.1667 25.3333 217.6667 L 20.3333 251.5 L 122 251.5 L 122 250.5 Z" fill="#222222"/>
		<path opacity="0.0392" d="M 188 250.5 L 142 201 L 152.5 187.5 L 150.15 176.575 C 223.18 203.5 217.0359 197.3552 222.68 217.5 L 229.5 250.5 L 188 250.5 Z" fill="#000000"/>
	</g>
	<g id="eyebrows_4">
		<path id="Ellipse3" d="M 98 104.5 C 98 103.6716 102.4771 100.5 108 100.5 C 113.5229 100.5 122 104.1716 122 105 C 122 105.8284 113.0229 105.3333 107.5 105.3333 C 101.9771 105.3333 98 105.3284 98 104.5 Z" fill="#ff5c26"/>
		<path id="Ellipse4" d="M 153 104.5 C 153 103.6716 148.5229 100.5 143 100.5 C 137.4771 100.5 129 104.1716 129 105 C 129 105.8284 137.9771 105.3333 143.5 105.3333 C 149.0229 105.3333 153 105.3284 153 104.5 Z" fill="#ff5c26"/>
	</g>
	<g id="eyebrows_3">
		<path id="Ellipse5" d="M 155 105 C 154.8518 104.2588 146.9158 99.6177 140.8406 101.5507 C 134.7654 103.4837 130.8061 109.0305 130.9543 109.7717 C 131.1026 110.5128 135.1748 106.183 141.25 104.25 C 147.3252 102.317 155.1482 105.7412 155 105 Z" fill="#ff5c26"/>
		<path id="Ellipse6" d="M 95.9524 105 C 96.1006 104.2588 104.0366 99.6177 110.1118 101.5507 C 116.187 103.4837 120.1463 109.0305 119.9981 109.7717 C 119.8498 110.5128 115.7776 106.183 109.7024 104.25 C 103.6272 102.317 95.8042 105.7412 95.9524 105 Z" fill="#ff5c26"/>
	</g>
	<g id="eyebrows_2">
		<path id="Ellipse7" d="M 98 105.5 C 98 104.6716 103.3153 100.1667 109.6667 100.1667 C 116.018 100.1667 121 104.6716 121 105.5 C 121 106.3284 115.6847 102.5 109.3333 102.5 C 102.982 102.5 98 106.3284 98 105.5 Z" fill="#ff5c26"/>
		<path id="Ellipse8" d="M 153 105.5 C 153 104.6716 147.6847 100.1667 141.3333 100.1667 C 134.982 100.1667 130 104.6716 130 105.5 C 130 106.3284 135.3153 102.5 141.6667 102.5 C 148.018 102.5 153 106.3284 153 105.5 Z" fill="#ff5c26"/>
	</g>
	<g id="eyebrows_1">
		<path id="Ellipse9" d="M 98 104.5 C 98 103.6716 103.1486 103 109.5 103 C 115.8514 103 121 103.6716 121 104.5 C 121 105.3284 115.8514 106 109.5 106 C 103.1486 106 98 105.3284 98 104.5 Z" fill="#ff5c26"/>
		<path id="Ellipse10" d="M 130 104.5 C 130 103.6716 135.1487 103 141.5 103 C 147.8513 103 153 103.6716 153 104.5 C 153 105.3284 147.8513 106 141.5 106 C 135.1487 106 130 105.3284 130 104.5 Z" fill="#ff5c26"/>
	</g>
	<g id="F_hair_3">
		<path d="M 167 100.0968 C 167 76.8471 148.1963 58 125 58 C 101.8038 58 83 76.8471 83 100.0968 L 83 122.22 C 90.4243 117.4057 100.2391 107.1359 109.3026 94.0636 C 115.9889 84.4199 122.3997 75.3732 125.3333 67.6667 C 128.267 75.3732 132.003 84.4199 138.6893 94.0636 C 148.5962 108.3524 159.4008 119.2923 167 123.42 L 167 100.0968 Z" fill="#ff5c26"/>
		<path d="M 103 167.77 C 90.9996 160.3595 83 147.0678 83 131.9032 L 83 212 L 103 232 L 103 167.77 ZM 83 128.1613 L 83 131.9032 C 83 130.6422 83.055 129.3941 83.1633 128.1613 L 83 128.1613 Z" fill="#ff5c26"/>
		<path d="M 166.8367 128.1613 C 166.945 129.3941 167 130.6422 167 131.9032 L 167 128.1613 L 166.8367 128.1613 ZM 167 212 L 167 131.9032 C 167 147.0678 159.0004 160.3595 147 167.77 L 147 232.3333 L 167 212 Z" fill="#ff5c26"/>
	</g>
	<g id="F_hair_2">
		<path id="path2" d="M 148.985 65.535 C 147.7301 64.6584 146.4246 63.8476 145.075 63.11 C 139.1107 59.8506 132.272 58 125 58 C 101.8038 58 83 76.8471 83 100.0968 L 83 110 L 83 125.125 C 98.9325 116.8598 115.5498 107.674 122.6617 102.7796 C 134.4008 94.7006 142.9732 84.711 146.79 75.71 C 147.1255 77.2568 147.5096 78.8157 147.942 80.3855 C 151.9371 94.8921 159.183 106.8059 167 113.165 L 167 100.0968 C 167 85.7851 159.8738 73.1412 148.985 65.535 Z" fill="#ff5c26"/>
		<path d="M 65 146 C 65 160.5114 71.9748 173.6324 83.22 183.065 C 88.5637 181.1387 94.4771 178.9909 101.03 176.575 L 101.03 165.755 C 90.6979 158.0862 84 145.7792 84 131.9032 C 84 130.6422 84.055 129.3941 84.1633 128.1613 L 84 128.1613 L 84 108.29 C 72.2969 117.7646 65 131.155 65 146 Z" fill="#ff5c26"/>
		<path d="M 166.835 183.02 C 178.0485 173.5907 185 160.4882 185 146 C 185 131.155 177.7031 117.7646 166 108.29 L 166 128.1613 L 165.8367 128.1613 C 165.945 129.3941 166 130.6422 166 131.9032 C 166 145.6985 159.3798 157.9422 149.15 165.62 L 149.15 176.575 C 155.6515 178.972 161.5243 181.1053 166.835 183.02 Z" fill="#ff5c26"/>
	</g>
	<g id="F_hair_1">
		<g>
			<path d="M 150 177.575 C 164.9367 182.7419 179.5565 187.0735 188.75 190.25 C 188.8689 188.978 188.5 182.5531 188.5 181.25 L 186 146 C 186 131.4518 178.423 118.6724 167 111.395 L 166.5 112.5 L 166.5 122.25 C 166.6083 123.4828 166.5 129.239 166.5 130.5 C 166.5 144.3626 160.3151 158.0646 150 165.735 L 150 177.575 Z" fill="#ff5c26"/>
		</g>
		<path id="path3" d="M 148.985 65.535 C 147.7301 64.6584 146.4246 63.8476 145.075 63.11 C 139.1107 59.8506 132.272 58 125 58 C 101.8038 58 83 76.8471 83 100.0968 L 83 110 L 83 125.125 C 98.9325 116.8598 115.5498 107.674 122.6617 102.7796 C 134.4008 94.7006 142.9732 84.711 146.79 75.71 C 147.1255 77.2568 147.5096 78.8157 147.942 80.3855 C 151.9371 94.8921 159.183 106.8059 167 113.165 L 167 100.0968 C 167 85.7851 159.8738 73.1412 148.985 65.535 Z" fill="#ff5c26"/>
	</g>
	<g id="M_hair_5">
		<path id="path4" d="M 151.5 63.5 C 150.2451 62.6234 150.811 59.1286 150.3333 57.6667 C 144.0083 38.3067 128.5 55.25 119.5 54.75 C 64.8252 51.7125 83 76.8471 83 100.0968 L 83 110 L 83 112.5 C 98.9325 104.2348 93.0883 71.4704 117 80.75 C 130.2851 85.9056 142.9732 84.711 146.79 75.71 C 147.1255 77.2568 148.901 80.4302 149.3333 82 C 153.3284 96.5066 163 93 167 113.165 L 167 100.0968 C 171 70 171.515 51.715 151.5 63.5 Z" fill="#ff5c26"/>
	</g>
	<g id="M_hair_4">
		<path opacity="0.4" d="M 167 100.0968 C 167 86.8989 160.9423 75.1184 151.46 67.4 C 150.6798 66.7649 149.8751 66.1586 149.05 65.58 C 142.2374 60.8027 133.9457 58 125 58 C 116.1681 58 107.9731 60.7332 101.21 65.4 C 100.2933 66.0326 99.4021 66.6982 98.54 67.4 C 89.0606 75.1185 83 86.9015 83 100.0968 L 83 100.59 C 87.4966 99.0323 92.1527 92.8575 97 85.5 C 99.0006 82.4633 100.394 80.0171 101.335 78.005 C 105.4066 80.0608 112.899 81 125 81 C 139.2893 81 145.5701 79.8203 148.385 77.815 C 149.2555 80.152 150.7111 82.9752 153 86.5 C 157.7984 93.8895 162.5034 100.0323 167 101.59 L 167 100.0968 Z" fill="#222222"/>
	</g>
	<g id="M_hair_3">
		<path id="path5" d="M 158 63.6667 C 156.7451 62.7901 146.4246 63.8476 145.075 63.11 C 139.1107 59.8506 146.3333 49 119.3333 56 C 83.8035 65.2114 83.6667 55.6667 83 100.0968 L 83 105.3333 L 83 109.3333 C 98.9325 101.0681 90.6381 92.6444 97.75 87.75 C 109.4891 79.671 139.8499 81.6677 143.6667 72.6667 C 144.0021 74.2135 139.75 88.5 150.25 99.25 C 159.5347 108.7557 159.183 106.8059 167 113.165 L 167 100.0968 C 167 85.7851 168.8888 71.2728 158 63.6667 Z" fill="#ff5c26"/>
	</g>
	<g id="M_hair_2">
		<path opacity="0.2" d="M 167 100.0968 C 167 86.8989 160.9423 75.1184 151.46 67.4 C 150.6798 66.7649 149.8751 66.1586 149.05 65.58 C 142.2374 60.8027 133.9457 58 125 58 C 116.1681 58 107.9731 60.7332 101.21 65.4 C 100.2933 66.0326 99.4021 66.6982 98.54 67.4 C 89.0606 75.1185 83 86.9015 83 100.0968 L 83 100.59 C 87.4966 99.0323 92.1527 92.8575 97 85.5 C 99.0006 82.4633 100.394 80.0171 101.335 78.005 C 105.4066 80.0608 112.899 81 125 81 C 139.2893 81 141.5184 80.3386 144.3333 78.3333 C 145.2039 80.6703 150.7111 82.9752 153 86.5 C 157.7984 93.8895 162.5034 100.0323 167 101.59 L 167 100.0968 Z" fill="#ff5c26"/>
		<path d="M 145.34 63.26 C 139.3135 59.9099 132.3786 57.8658 125 58 C 88.3333 58.6667 74.3333 79.5699 81 99.6667 L 83 104.82 C 90.2199 101.7784 88.6667 76 119.6667 83 C 146.7711 89.1204 147 81.5981 147 70 C 147 67.6416 146.4154 65.3762 145.34 63.26 Z" fill="#ff5c26"/>
	</g>
	<g id="M_hair_1">
		<path id="path6" d="M 148.985 65.535 C 147.7301 64.6584 146.4246 63.8476 145.075 63.11 C 139.1107 59.8506 132.272 58 125 58 C 101.8038 58 83 76.8471 83 100.0968 L 83 110 L 83 125.125 C 98.9325 116.8598 115.5498 107.674 122.6617 102.7796 C 134.4008 94.7006 142.9732 84.711 146.79 75.71 C 147.1255 77.2568 147.5096 78.8157 147.942 80.3855 C 151.9371 94.8921 159.183 106.8059 167 113.165 L 167 100.0968 C 167 85.7851 159.8738 73.1412 148.985 65.535 Z" fill="#ff5c26"/>
	</g>
	<g id="beard_5">
		<path d="M 166.8367 121.1613 C 166.945 122.3941 167 123.6422 167 124.9032 L 167 121.1613 L 166.8367 121.1613 ZM 167 144.1613 L 167 124.9032 C 167 148.1529 148.1963 167 125 167 C 101.8038 167 83 148.1529 83 124.9032 L 83 144.1613 L 83.1633 144.1613 C 83.055 145.3941 83 146.6422 83 147.9032 C 83 171.1529 101.8038 190 125 190 C 148.1963 190 167 171.1529 167 147.9032 C 167 146.6422 166.945 145.3941 166.8367 144.1613 L 167 144.1613 ZM 83 121.1613 L 83 124.9032 C 83 123.6422 83.055 122.3941 83.1633 121.1613 L 83 121.1613 Z" fill="#ff5c26"/>
		<path d="M 95 156 C 95 164.279 104.3151 171.2545 117 173.355 L 115.5 168.5 L 108.5 164.5 L 125.5 145.5 L 142.5 164.5 L 137 168.5 L 134 173.175 C 146.1714 170.8814 155 164.0599 155 156 C 155 146.0587 141.5687 138 125 138 C 108.4312 138 95 146.0587 95 156 Z" fill="#ff5c26"/>
	</g>
	<g id="beard_4">
		<path d="M 166.8367 121.1613 C 166.945 122.3941 167 123.6422 167 124.9032 L 167 121.1613 L 166.8367 121.1613 ZM 167 144.1613 L 167 124.9032 C 167 148.1529 148.1963 167 125 167 C 101.8038 167 83 148.1529 83 124.9032 L 83 144.1613 L 83.1633 144.1613 C 83.055 145.3941 83 146.6422 83 147.9032 C 83 171.1529 101.8038 190 125 190 C 148.1963 190 167 171.1529 167 147.9032 C 167 146.6422 166.945 145.3941 166.8367 144.1613 L 167 144.1613 ZM 83 121.1613 L 83 124.9032 C 83 123.6422 83.055 122.3941 83.1633 121.1613 L 83 121.1613 Z" fill="#ff5c26"/>
	</g>
	<g id="beard_3">
		<path id="path7" opacity="0.102" d="M 105.5 149.75 C 105.5 146.4362 117.5441 146.75 125 146.75 C 132.4559 146.75 144.75 145.9362 144.75 149.25 C 144.75 152.5638 132.9559 162 125.5 162 C 118.0441 162 105.5 153.0638 105.5 149.75 ZM 92.075 158.04 C 99.7683 167.7626 111.6574 174 125 174 C 138.3426 174 150.2317 167.7626 157.925 158.04 C 173.5 140.75 142.4733 142.25 125 142.25 C 107.5267 142.25 76.75 142.5 92.075 158.04 Z" fill="#000000"/>
	</g>
	<g id="beard_2">
		<path id="path8" d="M 112 156 C 112 152.6862 118.0441 150 125.5 150 C 132.9559 150 139 152.6862 139 156 C 139 159.3138 132.9559 162 125.5 162 C 118.0441 162 112 159.3138 112 156 ZM 92.075 158.04 C 99.7683 167.7626 111.6574 189.5 125 189.5 C 138.3426 189.5 150.2317 167.7626 157.925 158.04 C 156.7742 146.8459 142.4733 138 125 138 C 107.5267 138 93.2258 146.8459 92.075 158.04 Z" fill="#ff5c26"/>
	</g>
	<g id="beard_1">
		<path id="path9" d="M 112 156 C 112 152.6862 118.0441 150 125.5 150 C 132.9559 150 139 152.6862 139 156 C 139 159.3138 133.1226 160.3333 125.6667 160.3333 C 118.2107 160.3333 112 159.3138 112 156 ZM 92.075 158.04 C 99.7683 167.7626 111.6574 175.6667 125 175.6667 C 138.3426 175.6667 150.2317 167.7626 157.925 158.04 C 156.7742 146.8459 142.4733 138 125 138 C 107.5267 138 93.2258 146.8459 92.075 158.04 Z" fill="#ff5c26"/>
	</g>
</svg>